<svg width="24" height="24" viewBox="0 0 24 24" fill="none" xmlns="http://www.w3.org/2000/svg">
<rect width="24" height="24" fill="white"/>
<path d="M17.8 4.8H14.456C14.12 3.756 13.24 3 12.2 3C11.16 3 10.28 3.756 9.944 4.8H6.6C5.72 4.8 5 5.61 5 6.6V19.2C5 20.19 5.72 21 6.6 21H17.8C18.68 21 19.4 20.19 19.4 19.2V6.6C19.4 5.61 18.68 4.8 17.8 4.8ZM12.2 4.8C12.64 4.8 13 5.205 13 5.7C13 6.195 12.64 6.6 12.2 6.6C11.76 6.6 11.4 6.195 11.4 5.7C11.4 5.205 11.76 4.8 12.2 4.8ZM10.6 17.4L7.4 13.8L8.528 12.531L10.6 14.853L15.872 8.922L17 10.2L10.6 17.4Z" fill="#5A5A5A"/>
</svg>
