<svg width="200" height="47" viewBox="0 0 200 47" fill="none" xmlns="http://www.w3.org/2000/svg">
<path fill-rule="evenodd" clip-rule="evenodd" d="M158.703 25.1489C157.496 25.6226 156.159 25.8595 154.693 25.8595H147.292V6.47119H154.693C156.159 6.47119 157.496 6.71031 158.703 7.18853C159.909 7.66676 160.942 8.3327 161.8 9.18636C162.658 10.04 163.324 11.0613 163.798 12.2501C164.271 13.439 164.508 14.7441 164.508 16.1654C164.508 17.5866 164.271 18.8917 163.798 20.0806C163.324 21.2694 162.658 22.2929 161.8 23.1511C160.942 24.0092 159.909 24.6751 158.703 25.1489ZM67.2449 26.0741C68.0405 26.0741 68.7735 26.0272 69.4439 25.9333C70.1143 25.8394 70.74 25.7054 71.321 25.531C71.902 25.3567 72.4473 25.14 72.9568 24.8807C73.4663 24.6215 73.958 24.3265 74.4317 23.9958V17.2515H69.1891V18.0023C69.1891 18.0828 69.2226 18.1543 69.2897 18.2168C69.3567 18.2794 69.4394 18.3107 69.5377 18.3107H73.1848V23.4192C72.7646 23.6606 72.3468 23.8774 71.9311 24.0695C71.5154 24.2617 71.0774 24.4249 70.6171 24.5589C70.1567 24.693 69.6584 24.7936 69.1221 24.8606C68.5857 24.9277 67.9913 24.9612 67.3388 24.9612C66.1678 24.9612 65.0974 24.7645 64.1275 24.3712C63.1576 23.9779 62.3263 23.4125 61.6336 22.6751C60.9408 21.9376 60.4022 21.037 60.0179 19.9733C59.6335 18.9096 59.4413 17.7073 59.4413 16.3665C59.4413 15.0525 59.6313 13.8681 60.0112 12.8133C60.3911 11.7585 60.9319 10.8647 61.6336 10.1317C62.3353 9.39868 63.1822 8.83554 64.1744 8.44223C65.1666 8.04892 66.2795 7.85227 67.5131 7.85227C68.4427 7.85227 69.2338 7.93718 69.8863 8.10702C70.5389 8.27686 71.0819 8.46904 71.5154 8.68358C71.949 8.89811 72.2931 9.1037 72.5479 9.30036C72.8026 9.49701 72.9971 9.62215 73.1311 9.67579C73.2027 9.71154 73.2786 9.72942 73.3591 9.72942C73.5021 9.72942 73.6138 9.66238 73.6943 9.5283L74.0563 8.93833C73.6362 8.57184 73.1982 8.24781 72.7423 7.96624C72.2864 7.68466 71.7948 7.44778 71.2674 7.2556C70.74 7.06341 70.1702 6.91816 69.5578 6.81983C68.9455 6.7215 68.2774 6.67234 67.5533 6.67234C66.0963 6.67234 64.78 6.90251 63.6046 7.36286C62.4291 7.82321 61.4302 8.47575 60.6078 9.32047C59.7855 10.1652 59.1508 11.1842 58.7039 12.3776C58.2569 13.5709 58.0334 14.9005 58.0334 16.3665C58.0334 17.8325 58.2569 19.1644 58.7039 20.3622C59.1508 21.56 59.7788 22.5812 60.5877 23.426C61.3967 24.2707 62.3665 24.9232 63.4973 25.3836C64.6281 25.8439 65.8773 26.0741 67.2449 26.0741ZM81.0286 25.8595V17.2783H83.5092C83.8756 17.2783 84.146 17.3185 84.3204 17.3989C84.4947 17.4794 84.6578 17.6179 84.8098 17.8146L90.8837 25.5109C90.982 25.6361 91.0826 25.7255 91.1854 25.7791C91.2882 25.8327 91.4111 25.8595 91.5541 25.8595H92.7474L86.2176 17.6537C86.0478 17.4302 85.8556 17.2514 85.6411 17.1174C86.4724 17.028 87.2188 16.838 87.8802 16.5475C88.5417 16.257 89.1071 15.886 89.5764 15.4346C90.0457 14.9832 90.4055 14.4581 90.6558 13.8592C90.906 13.2603 91.0312 12.5988 91.0312 11.8747C91.0312 10.2389 90.4904 8.99866 89.4088 8.15395C88.3272 7.30923 86.6914 6.88687 84.5014 6.88687H79.661V25.8595H81.0286ZM81.0286 16.2592H84.327C85.1672 16.2592 85.9203 16.1587 86.5863 15.9575C87.2522 15.7564 87.8154 15.4681 88.2757 15.0927C88.7361 14.7173 89.0869 14.2659 89.3283 13.7385C89.5696 13.2111 89.6903 12.6166 89.6903 11.9552C89.6903 10.6054 89.2478 9.60426 88.3629 8.95173C87.4779 8.29919 86.1907 7.97292 84.5013 7.97292H81.0286V16.2592ZM107.55 25.8595V24.7198H97.561V16.809H105.874V15.6961H97.561V8.02657H107.55V6.88687H96.1799V25.8595H107.55ZM123.399 24.7198V25.8595H112.028V6.88687H123.399V8.02657H113.409V15.6961H121.723V16.809H113.409V24.7198H123.399ZM129.07 25.8595V9.89031C129.07 9.64897 129.057 9.39421 129.03 9.12604L141.366 25.5914C141.491 25.7702 141.656 25.8595 141.862 25.8595H142.519V6.88687H141.312V22.8025C141.312 23.0527 141.325 23.312 141.352 23.5801L129.07 7.14162C128.99 7.03436 128.914 6.96508 128.842 6.93379C128.771 6.90251 128.673 6.88687 128.547 6.88687H127.877V25.8595H129.07ZM154.694 22.9902H150.926V9.34055H154.694C155.641 9.34055 156.492 9.49698 157.248 9.80984C158.003 10.1227 158.645 10.5719 159.172 11.1574C159.699 11.7429 160.106 12.458 160.392 13.3027C160.678 14.1474 160.821 15.1016 160.821 16.1654C160.821 17.2291 160.678 18.1833 160.392 19.028C160.106 19.8727 159.699 20.5878 159.172 21.1733C158.645 21.7588 158.003 22.208 157.248 22.5209C156.492 22.8337 155.641 22.9902 154.694 22.9902ZM178.748 25.1489C177.541 25.6226 176.205 25.8595 174.739 25.8595H167.338V6.47119H174.739C176.205 6.47119 177.541 6.71031 178.748 7.18853C179.955 7.66676 180.987 8.3327 181.845 9.18636C182.703 10.04 183.369 11.0613 183.843 12.2501C184.317 13.439 184.554 14.7441 184.554 16.1654C184.554 17.5866 184.317 18.8917 183.843 20.0806C183.369 21.2694 182.703 22.2929 181.845 23.1511C180.987 24.0092 179.955 24.6751 178.748 25.1489ZM174.739 22.9902H170.971V9.34055H174.739C175.686 9.34055 176.538 9.49698 177.293 9.80984C178.048 10.1227 178.69 10.5719 179.217 11.1574C179.745 11.7429 180.151 12.458 180.437 13.3027C180.723 14.1474 180.866 15.1016 180.866 16.1654C180.866 17.2291 180.723 18.1833 180.437 19.028C180.151 19.8727 179.745 20.5878 179.217 21.1733C178.69 21.7588 178.048 22.208 177.293 22.5209C176.538 22.8337 175.686 22.9902 174.739 22.9902ZM194.167 9.43442V25.8595H190.561V9.43442H184.701V6.47119H200V9.43442H194.167Z" fill="white"/>
<path fill-rule="evenodd" clip-rule="evenodd" d="M182.524 40.6539C183.117 40.6539 183.624 40.5583 184.045 40.3673C184.466 40.1762 184.823 39.9097 185.118 39.5678L184.736 39.1505C184.693 39.1069 184.644 39.0851 184.591 39.0851C184.537 39.0851 184.482 39.1103 184.425 39.1605C184.297 39.2745 184.171 39.3726 184.045 39.4547C183.919 39.5368 183.784 39.6047 183.638 39.6583C183.492 39.7119 183.334 39.7513 183.163 39.7765C182.992 39.8016 182.799 39.8142 182.584 39.8142C182.232 39.8142 181.904 39.7505 181.599 39.6231C181.294 39.4957 181.03 39.3105 180.807 39.0675C180.584 38.8245 180.408 38.527 180.279 38.175C180.15 37.8231 180.085 37.4225 180.085 36.9733C180.085 36.5375 180.15 36.1437 180.279 35.7917C180.408 35.4397 180.588 35.1414 180.819 34.8967C181.051 34.652 181.326 34.4635 181.647 34.331C181.967 34.1986 182.32 34.1324 182.705 34.1324C182.92 34.1324 183.109 34.1484 183.273 34.1802C183.437 34.2121 183.582 34.2514 183.706 34.2984C183.83 34.3453 183.937 34.3956 184.027 34.4492C184.118 34.5028 184.197 34.5531 184.264 34.6001C184.331 34.647 184.389 34.6864 184.437 34.7182C184.486 34.7501 184.532 34.766 184.575 34.766C184.632 34.766 184.676 34.7551 184.706 34.7333C184.736 34.7115 184.763 34.6839 184.787 34.6503L185.103 34.2028C184.805 33.9213 184.464 33.6983 184.08 33.5341C183.696 33.3698 183.24 33.2877 182.71 33.2877C182.174 33.2877 181.683 33.3774 181.239 33.5567C180.795 33.7361 180.414 33.9883 180.095 34.3135C179.777 34.6386 179.53 35.0274 179.354 35.48C179.178 35.9325 179.09 36.4303 179.09 36.9733C179.09 37.5163 179.172 38.0141 179.336 38.4667C179.5 38.9192 179.732 39.3072 180.03 39.6307C180.328 39.9541 180.689 40.2055 181.111 40.3849C181.533 40.5642 182.004 40.6539 182.524 40.6539ZM60.8995 40.5734V35.2788C60.8995 35.2084 60.8969 35.1313 60.8919 35.0475C60.8869 34.9637 60.8793 34.8783 60.8693 34.7911L63.3934 39.3114C63.4772 39.4622 63.5945 39.5376 63.7454 39.5376H63.8861C64.037 39.5376 64.1543 39.4622 64.2381 39.3114L66.7069 34.8062C66.7002 34.89 66.6952 34.9721 66.6918 35.0526C66.6885 35.133 66.6868 35.2084 66.6868 35.2788V40.5734H67.5416V33.3682H66.8225C66.7354 33.3682 66.6684 33.3765 66.6214 33.3933C66.5745 33.4101 66.5292 33.457 66.4857 33.5341L64.047 37.9638C64.0001 38.051 63.9582 38.1373 63.9213 38.2228C63.8845 38.3083 63.8493 38.3979 63.8157 38.4918C63.7822 38.4013 63.7479 38.3116 63.7127 38.2228C63.6775 38.134 63.6364 38.0493 63.5895 37.9689L61.1006 33.5341C61.057 33.457 61.0117 33.4101 60.9648 33.3933C60.9179 33.3765 60.8508 33.3682 60.7637 33.3682H60.0447V40.5734H60.8995ZM75.93 40.5734C76.0138 40.5734 76.0842 40.55 76.1412 40.503C76.1982 40.4561 76.2384 40.4025 76.2619 40.3421L76.9357 38.6024H80.1687L80.8425 40.3421C80.8693 40.4092 80.9095 40.4645 80.9632 40.5081C81.0168 40.5516 81.0872 40.5734 81.1743 40.5734H81.9286L79.0475 33.3682H78.0569L75.1758 40.5734H75.93ZM77.2072 37.8985H79.8972L78.7659 34.9671C78.6921 34.7861 78.6201 34.5598 78.5497 34.2883C78.5128 34.4258 78.4768 34.5523 78.4416 34.668C78.4064 34.7836 78.372 34.885 78.3385 34.9722L77.2072 37.8985ZM90.6137 40.5734V37.5666H91.3529C91.4869 37.5666 91.5875 37.5842 91.6545 37.6194C91.7216 37.6546 91.7836 37.7124 91.8406 37.7929L93.711 40.3673C93.7948 40.5047 93.9256 40.5734 94.1032 40.5734H94.9681L92.8663 37.7124C92.7725 37.5784 92.6652 37.4761 92.5445 37.4057C92.8227 37.342 93.0716 37.2482 93.2912 37.1242C93.5108 37.0001 93.6968 36.8501 93.8493 36.6741C94.0018 36.4982 94.1183 36.2995 94.1988 36.0783C94.2792 35.8571 94.3194 35.6191 94.3194 35.3643C94.3194 35.0593 94.2675 34.7836 94.1636 34.5372C94.0597 34.2908 93.8996 34.0805 93.6834 33.9062C93.4672 33.7319 93.1931 33.5986 92.8613 33.5064C92.5294 33.4143 92.1356 33.3682 91.6797 33.3682H89.6433V40.5734H90.6137ZM90.6137 36.8577H91.6344C91.9193 36.8577 92.1699 36.8233 92.3861 36.7546C92.6023 36.6859 92.7833 36.5887 92.9292 36.463C93.075 36.3373 93.1848 36.1873 93.2585 36.013C93.3322 35.8386 93.3691 35.6459 93.3691 35.4347C93.3691 35.0057 93.2275 34.6822 92.9442 34.4643C92.661 34.2464 92.2395 34.1375 91.6797 34.1375H90.6137V36.8577ZM103.794 40.5734V37.275H104.236C104.317 37.275 104.385 37.2792 104.44 37.2876C104.495 37.2959 104.544 37.3102 104.586 37.3303C104.628 37.3504 104.665 37.3747 104.697 37.4032C104.728 37.4317 104.763 37.4661 104.8 37.5063L107.289 40.3673C107.315 40.3974 107.342 40.4259 107.369 40.4527C107.396 40.4796 107.425 40.5014 107.457 40.5181C107.489 40.5349 107.527 40.5483 107.57 40.5583C107.614 40.5684 107.667 40.5734 107.731 40.5734H108.576L105.71 37.1593C105.633 37.0688 105.559 36.9934 105.488 36.9331C105.418 36.8727 105.336 36.8275 105.242 36.7973C105.312 36.7638 105.379 36.7202 105.441 36.6666C105.503 36.613 105.569 36.5476 105.639 36.4705L108.385 33.3682H107.555C107.448 33.3682 107.36 33.3858 107.291 33.421C107.222 33.4562 107.151 33.5157 107.077 33.5995L104.679 36.3146C104.612 36.3917 104.541 36.4462 104.465 36.478C104.39 36.5099 104.288 36.5258 104.161 36.5258H103.794V33.3682H102.824V40.5734H103.794ZM120.715 39.779V40.5734H116.276V33.3682H120.715V34.1626H117.256V36.556H120.057V37.3202H117.256V39.779H120.715ZM131.402 40.5734V34.1877H133.73V33.3682H128.088V34.1877H130.426V40.5734H131.402ZM142.53 37.8784V40.5734H141.56V33.3682H143.687C144.143 33.3682 144.539 33.421 144.876 33.5265C145.213 33.6321 145.492 33.7821 145.713 33.9766C145.934 34.171 146.1 34.4056 146.208 34.6805C146.317 34.9554 146.372 35.2621 146.372 35.6006C146.372 35.9358 146.313 36.2426 146.196 36.5208C146.079 36.799 145.907 37.0387 145.681 37.2398C145.454 37.4409 145.174 37.5976 144.838 37.7099C144.503 37.8222 144.119 37.8784 143.687 37.8784H142.53ZM143.687 37.1041H142.531V34.1375H143.687C144.26 34.1375 144.688 34.2665 144.972 34.5246C145.255 34.7827 145.397 35.1414 145.397 35.6007C145.397 35.8219 145.36 36.0247 145.286 36.2091C145.212 36.3934 145.103 36.5518 144.959 36.6842C144.815 36.8166 144.636 36.9197 144.424 36.9934C144.211 37.0672 143.965 37.1041 143.687 37.1041ZM158.401 39.7538V40.5734H154.308V33.3682H155.283V39.7538H158.401ZM166.111 40.5734C166.194 40.5734 166.265 40.55 166.322 40.503C166.379 40.4561 166.419 40.4025 166.442 40.3421L167.116 38.6024H170.349L171.023 40.3421C171.05 40.4092 171.09 40.4645 171.144 40.5081C171.197 40.5516 171.268 40.5734 171.355 40.5734H172.109L169.228 33.3682H168.237L165.356 40.5734H166.111ZM167.388 37.8985H170.078L168.946 34.9671C168.873 34.7861 168.801 34.5598 168.73 34.2883C168.693 34.4258 168.657 34.5523 168.622 34.668C168.587 34.7836 168.553 34.885 168.519 34.9722L167.388 37.8985ZM197.545 39.779V40.5734H193.105V33.3682H197.545V34.1626H194.085V36.556H196.886V37.3202H194.085V39.779H197.545Z" fill="white"/>
<rect x="32.9917" y="2.21692" width="1.26835" height="3.38226" transform="rotate(49 32.9917 2.21692)" fill="url(#paint0_linear)"/>
<rect x="33.8779" y="5.39569" width="1.69113" height="5.07339" transform="rotate(59 33.8779 5.39569)" fill="url(#paint1_linear)"/>
<rect x="28.325" y="4.95923" width="2.11391" height="5.07339" transform="rotate(52 28.325 4.95923)" fill="url(#paint2_linear)"/>
<rect x="28.0035" y="0.966858" width="1.69113" height="5.07339" transform="rotate(48 28.0035 0.966858)" fill="url(#paint3_linear)"/>
<rect x="22.439" y="0.545532" width="1.47974" height="5.07339" transform="rotate(38 22.439 0.545532)" fill="url(#paint4_linear)"/>
<rect x="22.2711" y="4.79492" width="2.11391" height="5.07339" transform="rotate(44 22.2711 4.79492)" fill="url(#paint5_linear)"/>
<rect x="16.8049" y="1.08899" width="1.69113" height="4.05871" transform="rotate(34 16.8049 1.08899)" fill="url(#paint6_linear)"/>
<rect x="11.7629" y="2.33893" width="1.26835" height="4.05871" transform="rotate(14 11.7629 2.33893)" fill="url(#paint7_linear)"/>
<rect x="5.25256" y="11.7496" width="1.69113" height="2.95948" fill="url(#paint8_linear)"/>
<rect x="2.23523" y="12.4062" width="0.845565" height="2.95948" transform="rotate(-20 2.23523 12.4062)" fill="url(#paint9_linear)"/>
<rect x="0.595215" y="17.441" width="1.26835" height="2.95948" transform="rotate(-40 0.595215 17.441)" fill="url(#paint10_linear)"/>
<rect x="6.38794" y="6.65991" width="1.26835" height="3.38226" fill="url(#paint11_linear)"/>
<rect x="0.88501" y="24.2468" width="2.11391" height="2.11391" transform="rotate(-80 0.88501 24.2468)" fill="url(#paint12_linear)"/>
<rect x="1.96753" y="29.0791" width="1.26835" height="2.5367" transform="rotate(-140 1.96753 29.0791)" fill="url(#paint13_linear)"/>
<rect x="3.12158" y="33.963" width="0.845565" height="2.95948" transform="rotate(-160 3.12158 33.963)" fill="url(#paint14_linear)"/>
<rect x="7.39868" y="39.3188" width="1.26835" height="4.65061" transform="rotate(180 7.39868 39.3188)" fill="url(#paint15_linear)"/>
<rect x="12.7352" y="39.921" width="1.26835" height="4.65061" transform="rotate(165 12.7352 39.921)" fill="url(#paint16_linear)"/>
<rect x="17.7209" y="40.1699" width="1.69113" height="5.49617" transform="rotate(150 17.7209 40.1699)" fill="url(#paint17_linear)"/>
<rect x="23.652" y="39.9808" width="1.69113" height="5.49617" transform="rotate(135 23.652 39.9808)" fill="url(#paint18_linear)"/>
<rect x="30.1013" y="39.7543" width="2.11391" height="8.03287" transform="rotate(130 30.1013 39.7543)" fill="url(#paint19_linear)"/>
<rect x="29.6785" y="44.4048" width="1.26835" height="5.91896" transform="rotate(130 29.6785 44.4048)" fill="url(#paint20_linear)"/>
<rect x="34.4192" y="43.2267" width="1.26835" height="3.80504" transform="rotate(130 34.4192 43.2267)" fill="url(#paint21_linear)"/>
<rect x="34.9417" y="39.5095" width="1.26835" height="7.61009" transform="rotate(120 34.9417 39.5095)" fill="url(#paint22_linear)"/>
<rect x="40.0603" y="38.9597" width="1.26835" height="5.07339" transform="rotate(118 40.0603 38.9597)" fill="url(#paint23_linear)"/>
<rect x="40.5461" y="33.5271" width="1.69113" height="5.07339" transform="rotate(110 40.5461 33.5271)" fill="url(#paint24_linear)"/>
<rect x="35.8162" y="34.2646" width="2.11391" height="8.03287" transform="rotate(115 35.8162 34.2646)" fill="url(#paint25_linear)"/>
<rect x="41.2837" y="28.3464" width="2.11391" height="7.61009" transform="rotate(105 41.2837 28.3464)" fill="url(#paint26_linear)"/>
<rect x="36.3054" y="28.4703" width="2.5367" height="8.03287" transform="rotate(105 36.3054 28.4703)" fill="url(#paint27_linear)"/>
<rect x="30.4724" y="21.0172" width="4.22783" height="4.22783" transform="rotate(90 30.4724 21.0172)" fill="url(#paint28_linear)"/>
<rect x="35.9685" y="21.4399" width="3.38226" height="3.38226" transform="rotate(90 35.9685 21.4399)" fill="url(#paint29_linear)"/>
<rect x="41.4646" y="21.8627" width="2.5367" height="3.80504" transform="rotate(90 41.4646 21.8627)" fill="url(#paint30_linear)"/>
<rect x="23.7971" y="20.6603" width="5.49617" height="5.07339" transform="rotate(100 23.7971 20.6603)" fill="url(#paint31_linear)"/>
<rect x="23.9478" y="44.8478" width="1.26835" height="7.18731" transform="rotate(140 23.9478 44.8478)" fill="url(#paint32_linear)"/>
<rect x="18.2211" y="44.4521" width="1.26835" height="3.38226" transform="rotate(150 18.2211 44.4521)" fill="url(#paint33_linear)"/>
<rect x="7.0354" y="34.7532" width="1.69113" height="3.80504" transform="rotate(180 7.0354 34.7532)" fill="url(#paint34_linear)"/>
<rect x="12.3113" y="34.9166" width="2.11391" height="4.65061" transform="rotate(160 12.3113 34.9166)" fill="url(#paint35_linear)"/>
<rect x="6.69971" y="29.3698" width="2.11391" height="2.5367" transform="rotate(-170 6.69971 29.3698)" fill="url(#paint36_linear)"/>
<rect x="11.075" y="5.70782" width="1.69113" height="3.38226" transform="rotate(15 11.075 5.70782)" fill="url(#paint37_linear)"/>
<rect x="9.8728" y="10.6667" width="2.5367" height="2.95948" transform="rotate(14 9.8728 10.6667)" fill="url(#paint38_linear)"/>
<rect x="16.3153" y="4.65979" width="2.11391" height="5.07339" transform="rotate(34 16.3153 4.65979)" fill="url(#paint39_linear)"/>
<path fill-rule="evenodd" clip-rule="evenodd" d="M24.31 1.05696C24.31 1.6407 23.8368 2.11391 23.2531 2.11391C22.6693 2.11391 22.1961 1.6407 22.1961 1.05696C22.1961 0.473216 22.6693 0 23.2531 0C23.8368 0 24.31 0.473216 24.31 1.05696ZM28.7492 2.53672C29.333 2.53672 29.8062 2.0635 29.8062 1.47976C29.8062 0.896018 29.333 0.422803 28.7492 0.422803C28.1655 0.422803 27.6923 0.896018 27.6923 1.47976C27.6923 2.0635 28.1655 2.53672 28.7492 2.53672ZM33.6113 3.38224C34.0783 3.38224 34.4569 3.00367 34.4569 2.53668C34.4569 2.06969 34.0783 1.69111 33.6113 1.69111C33.1443 1.69111 32.7657 2.06969 32.7657 2.53668C32.7657 3.00367 33.1443 3.38224 33.6113 3.38224ZM34.2453 7.18733C34.8291 7.18733 35.3023 6.71411 35.3023 6.13037C35.3023 5.54663 34.8291 5.07341 34.2453 5.07341C33.6616 5.07341 33.1884 5.54663 33.1884 6.13037C33.1884 6.71411 33.6616 7.18733 34.2453 7.18733ZM30.4403 5.49618C30.4403 6.19667 29.8725 6.76453 29.172 6.76453C28.4715 6.76453 27.9036 6.19667 27.9036 5.49618C27.9036 4.79569 28.4715 4.22783 29.172 4.22783C29.8725 4.22783 30.4403 4.79569 30.4403 5.49618ZM23.1684 6.55313C23.8689 6.55313 24.4368 5.98527 24.4368 5.28478C24.4368 4.58429 23.8689 4.01643 23.1684 4.01643C22.468 4.01643 21.9001 4.58429 21.9001 5.28478C21.9001 5.98527 22.468 6.55313 23.1684 6.55313ZM18.6024 1.47976C18.6024 2.0635 18.1292 2.53672 17.5454 2.53672C16.9617 2.53672 16.4885 2.0635 16.4885 1.47976C16.4885 0.896018 16.9617 0.422803 17.5454 0.422803C18.1292 0.422803 18.6024 0.896018 18.6024 1.47976ZM12.4721 3.38224C12.9391 3.38224 13.3177 3.00367 13.3177 2.53668C13.3177 2.06969 12.9391 1.69111 12.4721 1.69111C12.0051 1.69111 11.6266 2.06969 11.6266 2.53668C11.6266 3.00367 12.0051 3.38224 12.4721 3.38224ZM7.39881 11.8379C7.39881 12.5384 6.83095 13.1063 6.13046 13.1063C5.42997 13.1063 4.86211 12.5384 4.86211 11.8379C4.86211 11.1374 5.42997 10.5696 6.13046 10.5696C6.83095 10.5696 7.39881 11.1374 7.39881 11.8379ZM2.64241 13.3177C3.05103 13.3177 3.38228 12.9864 3.38228 12.5778C3.38228 12.1692 3.05103 11.8379 2.64241 11.8379C2.23379 11.8379 1.90254 12.1692 1.90254 12.5778C1.90254 12.9864 2.23379 13.3177 2.64241 13.3177ZM2.43104 17.4398C2.43104 17.9652 2.00514 18.391 1.47978 18.391C0.95441 18.391 0.528516 17.9652 0.528516 17.4398C0.528516 16.9144 0.95441 16.4885 1.47978 16.4885C2.00514 16.4885 2.43104 16.9144 2.43104 17.4398ZM6.97584 7.6101C7.44283 7.6101 7.8214 7.23153 7.8214 6.76453C7.8214 6.29754 7.44283 5.91897 6.97584 5.91897C6.50885 5.91897 6.13027 6.29754 6.13027 6.76453C6.13027 7.23153 6.50885 7.6101 6.97584 7.6101ZM2.5367 23.0416C2.5367 23.7421 1.96884 24.31 1.26835 24.31C0.567859 24.31 0 23.7421 0 23.0416C0 22.3412 0.567859 21.7733 1.26835 21.7733C1.96884 21.7733 2.5367 22.3412 2.5367 23.0416ZM1.47971 29.5948C2.06345 29.5948 2.53667 29.1216 2.53667 28.5379C2.53667 27.9541 2.06345 27.4809 1.47971 27.4809C0.89597 27.4809 0.422754 27.9541 0.422754 28.5379C0.422754 29.1216 0.89597 29.5948 1.47971 29.5948ZM3.38228 33.7169C3.38228 34.1255 3.05103 34.4568 2.64241 34.4568C2.23379 34.4568 1.90254 34.1255 1.90254 33.7169C1.90254 33.3083 2.23379 32.9771 2.64241 32.9771C3.05103 32.9771 3.38228 33.3083 3.38228 33.7169ZM6.76448 40.1644C7.34822 40.1644 7.82143 39.6912 7.82143 39.1074C7.82143 38.5237 7.34822 38.0505 6.76448 38.0505C6.18074 38.0505 5.70752 38.5237 5.70752 39.1074C5.70752 39.6912 6.18074 40.1644 6.76448 40.1644ZM13.0005 39.953C13.0005 40.5367 12.5273 41.0099 11.9436 41.0099C11.3598 41.0099 10.8866 40.5367 10.8866 39.953C10.8866 39.3692 11.3598 38.896 11.9436 38.896C12.5273 38.896 13.0005 39.3692 13.0005 39.953ZM12.5778 44.1808C13.0448 44.1808 13.4234 43.8022 13.4234 43.3352C13.4234 42.8682 13.0448 42.4897 12.5778 42.4897C12.1108 42.4897 11.7322 42.8682 11.7322 43.3352C11.7322 43.8022 12.1108 44.1808 12.5778 44.1808ZM18.2854 40.5871C18.2854 41.2876 17.7176 41.8555 17.0171 41.8555C16.3166 41.8555 15.7487 41.2876 15.7487 40.5871C15.7487 39.8867 16.3166 39.3188 17.0171 39.3188C17.7176 39.3188 18.2854 39.8867 18.2854 40.5871ZM22.936 42.2783C23.7532 42.2783 24.4157 41.6158 24.4157 40.7985C24.4157 39.9813 23.7532 39.3188 22.936 39.3188C22.1188 39.3188 21.4562 39.9813 21.4562 40.7985C21.4562 41.6158 22.1188 42.2783 22.936 42.2783ZM30.5461 40.5871C30.5461 41.2876 29.9782 41.8555 29.2777 41.8555C28.5772 41.8555 28.0094 41.2876 28.0094 40.5871C28.0094 39.8867 28.5772 39.3188 29.2777 39.3188C29.9782 39.3188 30.5461 39.8867 30.5461 40.5871ZM28.7492 45.6605C29.333 45.6605 29.8062 45.1873 29.8062 44.6036C29.8062 44.0198 29.333 43.5466 28.7492 43.5466C28.1655 43.5466 27.6923 44.0198 27.6923 44.6036C27.6923 45.1873 28.1655 45.6605 28.7492 45.6605ZM34.6683 43.5466C34.6683 44.0136 34.2897 44.3922 33.8227 44.3922C33.3557 44.3922 32.9771 44.0136 32.9771 43.5466C32.9771 43.0796 33.3557 42.701 33.8227 42.701C34.2897 42.701 34.6683 43.0796 34.6683 43.5466ZM34.4568 41.0099C35.0405 41.0099 35.5137 40.5367 35.5137 39.953C35.5137 39.3692 35.0405 38.896 34.4568 38.896C33.873 38.896 33.3998 39.3692 33.3998 39.953C33.3998 40.5367 33.873 41.0099 34.4568 41.0099ZM40.3758 39.3188C40.3758 39.7858 39.9972 40.1643 39.5302 40.1643C39.0632 40.1643 38.6847 39.7858 38.6847 39.3188C38.6847 38.8518 39.0632 38.4732 39.5302 38.4732C39.9972 38.4732 40.3758 38.8518 40.3758 39.3188ZM40.1644 35.3024C40.7481 35.3024 41.2213 34.8292 41.2213 34.2454C41.2213 33.6617 40.7481 33.1885 40.1644 33.1885C39.5806 33.1885 39.1074 33.6617 39.1074 34.2454C39.1074 34.8292 39.5806 35.3024 40.1644 35.3024ZM36.3593 34.8796C36.3593 35.6968 35.6968 36.3593 34.8795 36.3593C34.0623 36.3593 33.3998 35.6968 33.3998 34.8796C33.3998 34.0623 34.0623 33.3998 34.8795 33.3998C35.6968 33.3998 36.3593 34.0623 36.3593 34.8796ZM40.6929 30.6517C41.4518 30.6517 42.0669 30.0366 42.0669 29.2777C42.0669 28.5188 41.4518 27.9037 40.6929 27.9037C39.934 27.9037 39.3188 28.5188 39.3188 29.2777C39.3188 30.0366 39.934 30.6517 40.6929 30.6517ZM37.2048 29.5948C37.2048 30.5288 36.4477 31.2859 35.5137 31.2859C34.5797 31.2859 33.8226 30.5288 33.8226 29.5948C33.8226 28.6608 34.5797 27.9037 35.5137 27.9037C36.4477 27.9037 37.2048 28.6608 37.2048 29.5948ZM29.8062 25.7898C31.2072 25.7898 32.3429 24.654 32.3429 23.2531C32.3429 21.8521 31.2072 20.7164 29.8062 20.7164C28.4052 20.7164 27.2695 21.8521 27.2695 23.2531C27.2695 24.654 28.4052 25.7898 29.8062 25.7898ZM37.6276 23.0417C37.6276 24.0924 36.7758 24.9442 35.7251 24.9442C34.6743 24.9442 33.8226 24.0924 33.8226 23.0417C33.8226 21.9909 34.6743 21.1391 35.7251 21.1391C36.7758 21.1391 37.6276 21.9909 37.6276 23.0417ZM40.7986 24.5214C41.6158 24.5214 42.2783 23.8589 42.2783 23.0417C42.2783 22.2244 41.6158 21.5619 40.7986 21.5619C39.9813 21.5619 39.3188 22.2244 39.3188 23.0417C39.3188 23.8589 39.9813 24.5214 40.7986 24.5214ZM26.0012 23.2531C26.0012 24.8875 24.6762 26.2125 23.0417 26.2125C21.4072 26.2125 20.0822 24.8875 20.0822 23.2531C20.0822 21.6186 21.4072 20.2936 23.0417 20.2936C24.6762 20.2936 26.0012 21.6186 26.0012 23.2531ZM23.2531 46.0833C23.8368 46.0833 24.31 45.6101 24.31 45.0264C24.31 44.4426 23.8368 43.9694 23.2531 43.9694C22.6693 43.9694 22.1961 44.4426 22.1961 45.0264C22.1961 45.6101 22.6693 46.0833 23.2531 46.0833ZM18.3911 44.6036C18.3911 45.0706 18.0126 45.4491 17.5456 45.4491C17.0786 45.4491 16.7 45.0706 16.7 44.6036C16.7 44.1366 17.0786 43.758 17.5456 43.758C18.0126 43.758 18.3911 44.1366 18.3911 44.6036ZM6.13046 35.7252C6.83095 35.7252 7.39881 35.1573 7.39881 34.4568C7.39881 33.7563 6.83095 33.1885 6.13046 33.1885C5.42997 33.1885 4.86211 33.7563 4.86211 34.4568C4.86211 35.1573 5.42997 35.7252 6.13046 35.7252ZM12.6834 34.8796C12.6834 35.6968 12.0209 36.3593 11.2037 36.3593C10.3864 36.3593 9.72393 35.6968 9.72393 34.8796C9.72393 34.0623 10.3864 33.3998 11.2037 33.3998C12.0209 33.3998 12.6834 34.0623 12.6834 34.8796ZM5.49615 30.8631C6.31338 30.8631 6.97588 30.2006 6.97588 29.3834C6.97588 28.5662 6.31338 27.9037 5.49615 27.9037C4.67891 27.9037 4.01641 28.5662 4.01641 29.3834C4.01641 30.2006 4.67891 30.8631 5.49615 30.8631ZM12.8949 5.91897C12.8949 6.50271 12.4217 6.97593 11.8379 6.97593C11.2542 6.97593 10.781 6.50271 10.781 5.91897C10.781 5.33523 11.2542 4.86201 11.8379 4.86201C12.4217 4.86201 12.8949 5.33523 12.8949 5.91897ZM10.9922 12.4721C11.8095 12.4721 12.472 11.8096 12.472 10.9924C12.472 10.1751 11.8095 9.51262 10.9922 9.51262C10.175 9.51262 9.5125 10.1751 9.5125 10.9924C9.5125 11.8096 10.175 12.4721 10.9922 12.4721ZM6.97585 23.1474C6.97585 24.023 6.26603 24.7328 5.39042 24.7328C4.5148 24.7328 3.80498 24.023 3.80498 23.1474C3.80498 22.2718 4.5148 21.5619 5.39042 21.5619C6.26603 21.5619 6.97585 22.2718 6.97585 23.1474ZM5.49615 18.391C6.31338 18.391 6.97588 17.7285 6.97588 16.9113C6.97588 16.0941 6.31338 15.4316 5.49615 15.4316C4.67891 15.4316 4.01641 16.0941 4.01641 16.9113C4.01641 17.7285 4.67891 18.391 5.49615 18.391ZM18.391 5.49618C18.391 6.19667 17.8231 6.76453 17.1226 6.76453C16.4222 6.76453 15.8543 6.19667 15.8543 5.49618C15.8543 4.79569 16.4222 4.22783 17.1226 4.22783C17.8231 4.22783 18.391 4.79569 18.391 5.49618Z" fill="white"/>
<defs>
<linearGradient id="paint0_linear" x1="32.9917" y1="2.21692" x2="32.9917" y2="5.59918" gradientUnits="userSpaceOnUse">
<stop stop-color="#AFAFAF"/>
<stop offset="1" stop-color="white" stop-opacity="0.01"/>
</linearGradient>
<linearGradient id="paint1_linear" x1="33.8779" y1="5.39569" x2="33.8779" y2="10.4691" gradientUnits="userSpaceOnUse">
<stop stop-color="#AFAFAF"/>
<stop offset="1" stop-color="white" stop-opacity="0.01"/>
</linearGradient>
<linearGradient id="paint2_linear" x1="28.325" y1="4.95923" x2="28.325" y2="10.0326" gradientUnits="userSpaceOnUse">
<stop stop-color="#AFAFAF"/>
<stop offset="1" stop-color="white" stop-opacity="0.01"/>
</linearGradient>
<linearGradient id="paint3_linear" x1="28.0035" y1="0.966858" x2="28.0035" y2="6.04025" gradientUnits="userSpaceOnUse">
<stop stop-color="#AFAFAF"/>
<stop offset="1" stop-color="white" stop-opacity="0.01"/>
</linearGradient>
<linearGradient id="paint4_linear" x1="22.439" y1="0.545532" x2="22.439" y2="5.61892" gradientUnits="userSpaceOnUse">
<stop stop-color="#AFAFAF"/>
<stop offset="1" stop-color="white" stop-opacity="0.01"/>
</linearGradient>
<linearGradient id="paint5_linear" x1="22.2711" y1="4.79492" x2="22.2711" y2="9.86831" gradientUnits="userSpaceOnUse">
<stop stop-color="#AFAFAF"/>
<stop offset="1" stop-color="white" stop-opacity="0.01"/>
</linearGradient>
<linearGradient id="paint6_linear" x1="16.8049" y1="1.08899" x2="16.8049" y2="5.1477" gradientUnits="userSpaceOnUse">
<stop stop-color="#AFAFAF"/>
<stop offset="1" stop-color="white" stop-opacity="0.01"/>
</linearGradient>
<linearGradient id="paint7_linear" x1="11.7629" y1="2.33893" x2="11.7629" y2="6.39764" gradientUnits="userSpaceOnUse">
<stop stop-color="#AFAFAF"/>
<stop offset="1" stop-color="white" stop-opacity="0.01"/>
</linearGradient>
<linearGradient id="paint8_linear" x1="5.25256" y1="11.7496" x2="5.25256" y2="14.7091" gradientUnits="userSpaceOnUse">
<stop stop-color="#AFAFAF"/>
<stop offset="1" stop-color="white" stop-opacity="0.01"/>
</linearGradient>
<linearGradient id="paint9_linear" x1="2.23523" y1="12.4062" x2="2.23523" y2="15.3657" gradientUnits="userSpaceOnUse">
<stop stop-color="#AFAFAF"/>
<stop offset="1" stop-color="white" stop-opacity="0.01"/>
</linearGradient>
<linearGradient id="paint10_linear" x1="0.595215" y1="17.441" x2="0.595215" y2="20.4005" gradientUnits="userSpaceOnUse">
<stop stop-color="#AFAFAF"/>
<stop offset="1" stop-color="white" stop-opacity="0.01"/>
</linearGradient>
<linearGradient id="paint11_linear" x1="6.38794" y1="6.65991" x2="6.38794" y2="10.0422" gradientUnits="userSpaceOnUse">
<stop stop-color="#AFAFAF"/>
<stop offset="1" stop-color="white" stop-opacity="0.01"/>
</linearGradient>
<linearGradient id="paint12_linear" x1="0.88501" y1="24.2468" x2="0.88501" y2="26.3607" gradientUnits="userSpaceOnUse">
<stop stop-color="#AFAFAF"/>
<stop offset="1" stop-color="white" stop-opacity="0.01"/>
</linearGradient>
<linearGradient id="paint13_linear" x1="1.96753" y1="29.0791" x2="1.96753" y2="31.6158" gradientUnits="userSpaceOnUse">
<stop stop-color="#AFAFAF"/>
<stop offset="1" stop-color="white" stop-opacity="0.01"/>
</linearGradient>
<linearGradient id="paint14_linear" x1="3.12158" y1="33.963" x2="3.12158" y2="36.9225" gradientUnits="userSpaceOnUse">
<stop stop-color="#AFAFAF"/>
<stop offset="1" stop-color="white" stop-opacity="0.01"/>
</linearGradient>
<linearGradient id="paint15_linear" x1="7.39868" y1="39.3188" x2="7.39868" y2="43.9694" gradientUnits="userSpaceOnUse">
<stop stop-color="#AFAFAF"/>
<stop offset="1" stop-color="white" stop-opacity="0.01"/>
</linearGradient>
<linearGradient id="paint16_linear" x1="12.7352" y1="39.921" x2="12.7352" y2="44.5716" gradientUnits="userSpaceOnUse">
<stop stop-color="#AFAFAF"/>
<stop offset="1" stop-color="white" stop-opacity="0.01"/>
</linearGradient>
<linearGradient id="paint17_linear" x1="17.7209" y1="40.1699" x2="17.7209" y2="45.6661" gradientUnits="userSpaceOnUse">
<stop stop-color="#AFAFAF"/>
<stop offset="1" stop-color="white" stop-opacity="0.01"/>
</linearGradient>
<linearGradient id="paint18_linear" x1="23.652" y1="39.9808" x2="23.652" y2="45.477" gradientUnits="userSpaceOnUse">
<stop stop-color="#AFAFAF"/>
<stop offset="1" stop-color="white" stop-opacity="0.01"/>
</linearGradient>
<linearGradient id="paint19_linear" x1="30.1013" y1="39.7543" x2="30.1013" y2="47.7871" gradientUnits="userSpaceOnUse">
<stop stop-color="#AFAFAF"/>
<stop offset="1" stop-color="white" stop-opacity="0.01"/>
</linearGradient>
<linearGradient id="paint20_linear" x1="29.6785" y1="44.4048" x2="29.6785" y2="50.3238" gradientUnits="userSpaceOnUse">
<stop stop-color="#AFAFAF"/>
<stop offset="1" stop-color="white" stop-opacity="0.01"/>
</linearGradient>
<linearGradient id="paint21_linear" x1="34.4192" y1="43.2267" x2="34.4192" y2="47.0318" gradientUnits="userSpaceOnUse">
<stop stop-color="#AFAFAF"/>
<stop offset="1" stop-color="white" stop-opacity="0.01"/>
</linearGradient>
<linearGradient id="paint22_linear" x1="34.9416" y1="39.5095" x2="34.9416" y2="47.1195" gradientUnits="userSpaceOnUse">
<stop stop-color="#AFAFAF"/>
<stop offset="1" stop-color="white" stop-opacity="0.01"/>
</linearGradient>
<linearGradient id="paint23_linear" x1="40.0603" y1="38.9597" x2="40.0603" y2="44.0331" gradientUnits="userSpaceOnUse">
<stop stop-color="#AFAFAF"/>
<stop offset="1" stop-color="white" stop-opacity="0.01"/>
</linearGradient>
<linearGradient id="paint24_linear" x1="40.5461" y1="33.5271" x2="40.5461" y2="38.6005" gradientUnits="userSpaceOnUse">
<stop stop-color="#AFAFAF"/>
<stop offset="1" stop-color="white" stop-opacity="0.01"/>
</linearGradient>
<linearGradient id="paint25_linear" x1="35.8162" y1="34.2646" x2="35.8162" y2="42.2975" gradientUnits="userSpaceOnUse">
<stop stop-color="#AFAFAF"/>
<stop offset="1" stop-color="white" stop-opacity="0.01"/>
</linearGradient>
<linearGradient id="paint26_linear" x1="41.2837" y1="28.3464" x2="41.2837" y2="35.9565" gradientUnits="userSpaceOnUse">
<stop stop-color="#AFAFAF"/>
<stop offset="1" stop-color="white" stop-opacity="0.01"/>
</linearGradient>
<linearGradient id="paint27_linear" x1="36.3054" y1="28.4703" x2="36.3054" y2="36.5031" gradientUnits="userSpaceOnUse">
<stop stop-color="#AFAFAF"/>
<stop offset="1" stop-color="white" stop-opacity="0.01"/>
</linearGradient>
<linearGradient id="paint28_linear" x1="30.4724" y1="21.0172" x2="30.4724" y2="25.245" gradientUnits="userSpaceOnUse">
<stop stop-color="#AFAFAF"/>
<stop offset="1" stop-color="white" stop-opacity="0.01"/>
</linearGradient>
<linearGradient id="paint29_linear" x1="35.9685" y1="21.4399" x2="35.9685" y2="24.8222" gradientUnits="userSpaceOnUse">
<stop stop-color="#AFAFAF"/>
<stop offset="1" stop-color="white" stop-opacity="0.01"/>
</linearGradient>
<linearGradient id="paint30_linear" x1="41.4646" y1="21.8627" x2="41.4646" y2="25.6678" gradientUnits="userSpaceOnUse">
<stop stop-color="#AFAFAF"/>
<stop offset="1" stop-color="white" stop-opacity="0.01"/>
</linearGradient>
<linearGradient id="paint31_linear" x1="23.7971" y1="20.6603" x2="23.7971" y2="25.7337" gradientUnits="userSpaceOnUse">
<stop stop-color="#AFAFAF"/>
<stop offset="1" stop-color="white" stop-opacity="0.01"/>
</linearGradient>
<linearGradient id="paint32_linear" x1="23.9478" y1="44.8478" x2="23.9478" y2="52.0351" gradientUnits="userSpaceOnUse">
<stop stop-color="#AFAFAF"/>
<stop offset="1" stop-color="white" stop-opacity="0.01"/>
</linearGradient>
<linearGradient id="paint33_linear" x1="18.2211" y1="44.4521" x2="18.2211" y2="47.8343" gradientUnits="userSpaceOnUse">
<stop stop-color="#AFAFAF"/>
<stop offset="1" stop-color="white" stop-opacity="0.01"/>
</linearGradient>
<linearGradient id="paint34_linear" x1="7.0354" y1="34.7532" x2="7.0354" y2="38.5583" gradientUnits="userSpaceOnUse">
<stop stop-color="#AFAFAF"/>
<stop offset="1" stop-color="white" stop-opacity="0.01"/>
</linearGradient>
<linearGradient id="paint35_linear" x1="12.3113" y1="34.9166" x2="12.3113" y2="39.5672" gradientUnits="userSpaceOnUse">
<stop stop-color="#AFAFAF"/>
<stop offset="1" stop-color="white" stop-opacity="0.01"/>
</linearGradient>
<linearGradient id="paint36_linear" x1="6.69971" y1="29.3698" x2="6.69971" y2="31.9064" gradientUnits="userSpaceOnUse">
<stop stop-color="#AFAFAF"/>
<stop offset="1" stop-color="white" stop-opacity="0.01"/>
</linearGradient>
<linearGradient id="paint37_linear" x1="11.075" y1="5.70782" x2="11.075" y2="9.09009" gradientUnits="userSpaceOnUse">
<stop stop-color="#AFAFAF"/>
<stop offset="1" stop-color="white" stop-opacity="0.01"/>
</linearGradient>
<linearGradient id="paint38_linear" x1="9.8728" y1="10.6667" x2="9.8728" y2="13.6262" gradientUnits="userSpaceOnUse">
<stop stop-color="#AFAFAF"/>
<stop offset="1" stop-color="white" stop-opacity="0.01"/>
</linearGradient>
<linearGradient id="paint39_linear" x1="16.3153" y1="4.65979" x2="16.3153" y2="9.73318" gradientUnits="userSpaceOnUse">
<stop stop-color="#AFAFAF"/>
<stop offset="1" stop-color="white" stop-opacity="0.01"/>
</linearGradient>
</defs>
</svg>
