<svg width="38" height="42" viewBox="0 0 38 42" fill="none" xmlns="http://www.w3.org/2000/svg">
<rect x="29.6533" y="1.99258" width="1.14" height="3.04" transform="rotate(49 29.6533 1.99258)" fill="url(#paint0_linear)"/>
<rect x="30.4498" y="4.84973" width="1.52" height="4.56" transform="rotate(59 30.4498 4.84973)" fill="url(#paint1_linear)"/>
<rect x="25.4587" y="4.4574" width="1.9" height="4.56" transform="rotate(52 25.4587 4.4574)" fill="url(#paint2_linear)"/>
<rect x="25.1699" y="0.86908" width="1.52" height="4.56" transform="rotate(48 25.1699 0.86908)" fill="url(#paint3_linear)"/>
<rect x="20.1684" y="0.490356" width="1.33" height="4.56" transform="rotate(38 20.1684 0.490356)" fill="url(#paint4_linear)"/>
<rect x="20.0175" y="4.30969" width="1.9" height="4.56" transform="rotate(44 20.0175 4.30969)" fill="url(#paint5_linear)"/>
<rect x="15.1046" y="0.97879" width="1.52" height="3.648" transform="rotate(34 15.1046 0.97879)" fill="url(#paint6_linear)"/>
<rect x="10.5726" y="2.10223" width="1.14" height="3.648" transform="rotate(14 10.5726 2.10223)" fill="url(#paint7_linear)"/>
<rect x="4.72107" y="10.5607" width="1.52" height="2.66" fill="url(#paint8_linear)"/>
<rect x="2.00916" y="11.1508" width="0.76" height="2.66" transform="rotate(-20 2.00916 11.1508)" fill="url(#paint9_linear)"/>
<rect x="0.534973" y="15.6761" width="1.14" height="2.66" transform="rotate(-40 0.534973 15.6761)" fill="url(#paint10_linear)"/>
<rect x="5.74146" y="5.98599" width="1.14" height="3.04" fill="url(#paint11_linear)"/>
<rect x="0.795593" y="21.7932" width="1.9" height="1.9" transform="rotate(-80 0.795593 21.7932)" fill="url(#paint12_linear)"/>
<rect x="1.76843" y="26.1365" width="1.14" height="2.28" transform="rotate(-140 1.76843 26.1365)" fill="url(#paint13_linear)"/>
<rect x="2.80579" y="30.5262" width="0.76" height="2.66" transform="rotate(-160 2.80579 30.5262)" fill="url(#paint14_linear)"/>
<rect x="6.65009" y="35.34" width="1.14" height="4.18" transform="rotate(180 6.65009 35.34)" fill="url(#paint15_linear)"/>
<rect x="11.4466" y="35.8813" width="1.14" height="4.18" transform="rotate(165 11.4466 35.8813)" fill="url(#paint16_linear)"/>
<rect x="15.9278" y="36.105" width="1.52" height="4.94" transform="rotate(150 15.9278 36.105)" fill="url(#paint17_linear)"/>
<rect x="21.2586" y="35.9351" width="1.52" height="4.94" transform="rotate(135 21.2586 35.9351)" fill="url(#paint18_linear)"/>
<rect x="27.0552" y="35.7314" width="1.9" height="7.22" transform="rotate(130 27.0552 35.7314)" fill="url(#paint19_linear)"/>
<rect x="26.6752" y="39.9114" width="1.14" height="5.32" transform="rotate(130 26.6752 39.9114)" fill="url(#paint20_linear)"/>
<rect x="30.9364" y="38.8525" width="1.14" height="3.42" transform="rotate(130 30.9364 38.8525)" fill="url(#paint21_linear)"/>
<rect x="31.4059" y="35.5114" width="1.14" height="6.84" transform="rotate(120 31.4059 35.5114)" fill="url(#paint22_linear)"/>
<rect x="36.0065" y="35.0173" width="1.14" height="4.56" transform="rotate(118 36.0065 35.0173)" fill="url(#paint23_linear)"/>
<rect x="36.4432" y="30.1344" width="1.52" height="4.56" transform="rotate(110 36.4432 30.1344)" fill="url(#paint24_linear)"/>
<rect x="32.192" y="30.7973" width="1.9" height="7.22" transform="rotate(115 32.192 30.7973)" fill="url(#paint25_linear)"/>
<rect x="37.1062" y="25.478" width="1.9" height="6.84" transform="rotate(105 37.1062 25.478)" fill="url(#paint26_linear)"/>
<rect x="32.6316" y="25.5894" width="2.28" height="7.22" transform="rotate(105 32.6316 25.5894)" fill="url(#paint27_linear)"/>
<rect x="27.3887" y="18.8904" width="3.8" height="3.8" transform="rotate(90 27.3887 18.8904)" fill="url(#paint28_linear)"/>
<rect x="32.3288" y="19.2704" width="3.04" height="3.04" transform="rotate(90 32.3288 19.2704)" fill="url(#paint29_linear)"/>
<rect x="37.2688" y="19.6504" width="2.28" height="3.42" transform="rotate(90 37.2688 19.6504)" fill="url(#paint30_linear)"/>
<rect x="21.389" y="18.5696" width="4.94" height="4.56" transform="rotate(100 21.389 18.5696)" fill="url(#paint31_linear)"/>
<rect x="21.5245" y="40.3095" width="1.14" height="6.46" transform="rotate(140 21.5245 40.3095)" fill="url(#paint32_linear)"/>
<rect x="16.3773" y="39.9539" width="1.14" height="3.04" transform="rotate(150 16.3773 39.9539)" fill="url(#paint33_linear)"/>
<rect x="6.32361" y="31.2365" width="1.52" height="3.42" transform="rotate(180 6.32361 31.2365)" fill="url(#paint34_linear)"/>
<rect x="11.0656" y="31.3834" width="1.9" height="4.18" transform="rotate(160 11.0656 31.3834)" fill="url(#paint35_linear)"/>
<rect x="6.02173" y="26.3977" width="1.9" height="2.28" transform="rotate(-170 6.02173 26.3977)" fill="url(#paint36_linear)"/>
<rect x="9.95441" y="5.13028" width="1.52" height="3.04" transform="rotate(15 9.95441 5.13028)" fill="url(#paint37_linear)"/>
<rect x="8.8739" y="9.58737" width="2.28" height="2.66" transform="rotate(14 8.8739 9.58737)" fill="url(#paint38_linear)"/>
<rect x="14.6644" y="4.18826" width="1.9" height="4.56" transform="rotate(34 14.6644 4.18826)" fill="url(#paint39_linear)"/>
<path fill-rule="evenodd" clip-rule="evenodd" d="M21.8499 0.95C21.8499 1.47467 21.4246 1.9 20.8999 1.9C20.3753 1.9 19.9499 1.47467 19.9499 0.95C19.9499 0.42533 20.3753 0 20.8999 0C21.4246 0 21.8499 0.42533 21.8499 0.95ZM25.84 2.28C26.3647 2.28 26.79 1.85467 26.79 1.33C26.79 0.805324 26.3647 0.379995 25.84 0.379995C25.3153 0.379995 24.89 0.805324 24.89 1.33C24.89 1.85467 25.3153 2.28 25.84 2.28ZM30.21 3.04001C30.6297 3.04001 30.97 2.69975 30.97 2.28001C30.97 1.86027 30.6297 1.52001 30.21 1.52001C29.7903 1.52001 29.45 1.86027 29.45 2.28001C29.45 2.69975 29.7903 3.04001 30.21 3.04001ZM30.78 6.46C31.3047 6.46 31.73 6.03467 31.73 5.51C31.73 4.98533 31.3047 4.56 30.78 4.56C30.2554 4.56 29.83 4.98533 29.83 5.51C29.83 6.03467 30.2554 6.46 30.78 6.46ZM27.36 4.93998C27.36 5.56959 26.8497 6.07998 26.22 6.07998C25.5904 6.07998 25.08 5.56959 25.08 4.93998C25.08 4.31038 25.5904 3.79998 26.22 3.79998C26.8497 3.79998 27.36 4.31038 27.36 4.93998ZM20.824 5.88998C21.4536 5.88998 21.964 5.37959 21.964 4.74998C21.964 4.12038 21.4536 3.60998 20.824 3.60998C20.1944 3.60998 19.684 4.12038 19.684 4.74998C19.684 5.37959 20.1944 5.88998 20.824 5.88998ZM16.72 1.33C16.72 1.85467 16.2947 2.28 15.77 2.28C15.2453 2.28 14.82 1.85467 14.82 1.33C14.82 0.805324 15.2453 0.379995 15.77 0.379995C16.2947 0.379995 16.72 0.805324 16.72 1.33ZM11.2099 3.04001C11.6297 3.04001 11.9699 2.69975 11.9699 2.28001C11.9699 1.86027 11.6297 1.52001 11.2099 1.52001C10.7902 1.52001 10.4499 1.86027 10.4499 2.28001C10.4499 2.69975 10.7902 3.04001 11.2099 3.04001ZM6.65007 10.64C6.65007 11.2696 6.13967 11.78 5.51007 11.78C4.88046 11.78 4.37007 11.2696 4.37007 10.64C4.37007 10.0104 4.88046 9.5 5.51007 9.5C6.13967 9.5 6.65007 10.0104 6.65007 10.64ZM2.3751 11.9701C2.74237 11.9701 3.0401 11.6723 3.0401 11.3051C3.0401 10.9378 2.74237 10.6401 2.3751 10.6401C2.00783 10.6401 1.7101 10.9378 1.7101 11.3051C1.7101 11.6723 2.00783 11.9701 2.3751 11.9701ZM2.18496 15.675C2.18496 16.1472 1.80217 16.53 1.32996 16.53C0.857759 16.53 0.474962 16.1472 0.474962 15.675C0.474962 15.2028 0.857759 14.82 1.32996 14.82C1.80217 14.82 2.18496 15.2028 2.18496 15.675ZM6.26993 6.83999C6.68966 6.83999 7.02993 6.49973 7.02993 6.07999C7.02993 5.66026 6.68966 5.31999 6.26993 5.31999C5.85019 5.31999 5.50993 5.66026 5.50993 6.07999C5.50993 6.49973 5.85019 6.83999 6.26993 6.83999ZM2.28 20.71C2.28 21.3396 1.7696 21.85 1.14 21.85C0.510395 21.85 0 21.3396 0 20.71C0 20.0804 0.510395 19.57 1.14 19.57C1.7696 19.57 2.28 20.0804 2.28 20.71ZM1.32993 26.6C1.8546 26.6 2.27993 26.1747 2.27993 25.65C2.27993 25.1253 1.8546 24.7 1.32993 24.7C0.805262 24.7 0.379932 25.1253 0.379932 25.65C0.379932 26.1747 0.805262 26.6 1.32993 26.6ZM3.0401 30.305C3.0401 30.6723 2.74237 30.97 2.3751 30.97C2.00783 30.97 1.7101 30.6723 1.7101 30.305C1.7101 29.9378 2.00783 29.64 2.3751 29.64C2.74237 29.64 3.0401 29.9378 3.0401 30.305ZM6.08006 36.1C6.60473 36.1 7.03006 35.6747 7.03006 35.15C7.03006 34.6254 6.60473 34.2 6.08006 34.2C5.55539 34.2 5.13006 34.6254 5.13006 35.15C5.13006 35.6747 5.55539 36.1 6.08006 36.1ZM11.685 35.91C11.685 36.4346 11.2596 36.86 10.735 36.86C10.2103 36.86 9.78496 36.4346 9.78496 35.91C9.78496 35.3853 10.2103 34.96 10.735 34.96C11.2596 34.96 11.685 35.3853 11.685 35.91ZM11.305 39.71C11.7248 39.71 12.065 39.3697 12.065 38.95C12.065 38.5303 11.7248 38.19 11.305 38.19C10.8853 38.19 10.545 38.5303 10.545 38.95C10.545 39.3697 10.8853 39.71 11.305 39.71ZM16.435 36.48C16.435 37.1096 15.9246 37.62 15.295 37.62C14.6654 37.62 14.155 37.1096 14.155 36.48C14.155 35.8504 14.6654 35.34 15.295 35.34C15.9246 35.34 16.435 35.8504 16.435 36.48ZM20.615 38C21.3496 38 21.945 37.4046 21.945 36.67C21.945 35.9355 21.3496 35.34 20.615 35.34C19.8805 35.34 19.285 35.9355 19.285 36.67C19.285 37.4046 19.8805 38 20.615 38ZM27.4551 36.48C27.4551 37.1096 26.9447 37.62 26.3151 37.62C25.6855 37.62 25.1751 37.1096 25.1751 36.48C25.1751 35.8504 25.6855 35.34 26.3151 35.34C26.9447 35.34 27.4551 35.8504 27.4551 36.48ZM25.84 41.0401C26.3647 41.0401 26.79 40.6147 26.79 40.09C26.79 39.5654 26.3647 39.14 25.84 39.14C25.3153 39.14 24.89 39.5654 24.89 40.09C24.89 40.6147 25.3153 41.0401 25.84 41.0401ZM31.16 39.14C31.16 39.5597 30.8197 39.9 30.4 39.9C29.9802 39.9 29.64 39.5597 29.64 39.14C29.64 38.7203 29.9802 38.38 30.4 38.38C30.8197 38.38 31.16 38.7203 31.16 39.14ZM30.97 36.86C31.4946 36.86 31.92 36.4346 31.92 35.91C31.92 35.3853 31.4946 34.96 30.97 34.96C30.4453 34.96 30.02 35.3853 30.02 35.91C30.02 36.4346 30.4453 36.86 30.97 36.86ZM36.2901 35.34C36.2901 35.7598 35.9498 36.1 35.5301 36.1C35.1104 36.1 34.7701 35.7598 34.7701 35.34C34.7701 34.9203 35.1104 34.58 35.5301 34.58C35.9498 34.58 36.2901 34.9203 36.2901 35.34ZM36.1 31.73C36.6247 31.73 37.05 31.3047 37.05 30.78C37.05 30.2553 36.6247 29.83 36.1 29.83C35.5754 29.83 35.15 30.2553 35.15 30.78C35.15 31.3047 35.5754 31.73 36.1 31.73ZM32.68 31.35C32.68 32.0845 32.0845 32.68 31.35 32.68C30.6154 32.68 30.02 32.0845 30.02 31.35C30.02 30.6154 30.6154 30.02 31.35 30.02C32.0845 30.02 32.68 30.6154 32.68 31.35ZM36.575 27.55C37.257 27.55 37.81 26.9971 37.81 26.315C37.81 25.6329 37.257 25.08 36.575 25.08C35.8929 25.08 35.34 25.6329 35.34 26.315C35.34 26.9971 35.8929 27.55 36.575 27.55ZM33.4401 26.6C33.4401 27.4395 32.7596 28.12 31.9201 28.12C31.0806 28.12 30.4001 27.4395 30.4001 26.6C30.4001 25.7605 31.0806 25.08 31.9201 25.08C32.7596 25.08 33.4401 25.7605 33.4401 26.6ZM26.79 23.18C28.0492 23.18 29.07 22.1592 29.07 20.9C29.07 19.6408 28.0492 18.62 26.79 18.62C25.5308 18.62 24.51 19.6408 24.51 20.9C24.51 22.1592 25.5308 23.18 26.79 23.18ZM33.8201 20.71C33.8201 21.6544 33.0545 22.42 32.1101 22.42C31.1657 22.42 30.4001 21.6544 30.4001 20.71C30.4001 19.7656 31.1657 19 32.1101 19C33.0545 19 33.8201 19.7656 33.8201 20.71ZM36.67 22.04C37.4045 22.04 38 21.4445 38 20.71C38 19.9754 37.4045 19.38 36.67 19.38C35.9354 19.38 35.34 19.9754 35.34 20.71C35.34 21.4445 35.9354 22.04 36.67 22.04ZM23.3701 20.9C23.3701 22.3691 22.1792 23.56 20.7101 23.56C19.241 23.56 18.0501 22.3691 18.0501 20.9C18.0501 19.431 19.241 18.24 20.7101 18.24C22.1792 18.24 23.3701 19.431 23.3701 20.9ZM20.8999 41.42C21.4246 41.42 21.8499 40.9947 21.8499 40.47C21.8499 39.9453 21.4246 39.52 20.8999 39.52C20.3753 39.52 19.9499 39.9453 19.9499 40.47C19.9499 40.9947 20.3753 41.42 20.8999 41.42ZM16.5299 40.09C16.5299 40.5097 16.1897 40.85 15.7699 40.85C15.3502 40.85 15.0099 40.5097 15.0099 40.09C15.0099 39.6702 15.3502 39.33 15.7699 39.33C16.1897 39.33 16.5299 39.6702 16.5299 40.09ZM5.51007 32.11C6.13967 32.11 6.65007 31.5996 6.65007 30.97C6.65007 30.3404 6.13967 29.83 5.51007 29.83C4.88046 29.83 4.37007 30.3404 4.37007 30.97C4.37007 31.5996 4.88046 32.11 5.51007 32.11ZM11.4 31.35C11.4 32.0845 10.8045 32.68 10.07 32.68C9.33547 32.68 8.74001 32.0845 8.74001 31.35C8.74001 30.6154 9.33547 30.02 10.07 30.02C10.8045 30.02 11.4 30.6154 11.4 31.35ZM4.94008 27.74C5.67462 27.74 6.27008 27.1446 6.27008 26.41C6.27008 25.6755 5.67462 25.08 4.94008 25.08C4.20554 25.08 3.61008 25.6755 3.61008 26.41C3.61008 27.1446 4.20554 27.74 4.94008 27.74ZM11.5899 5.32004C11.5899 5.84471 11.1646 6.27004 10.6399 6.27004C10.1153 6.27004 9.68993 5.84471 9.68993 5.32004C9.68993 4.79537 10.1153 4.37004 10.6399 4.37004C11.1646 4.37004 11.5899 4.79537 11.5899 5.32004ZM9.88008 11.21C10.6146 11.21 11.2101 10.6146 11.2101 9.88001C11.2101 9.14547 10.6146 8.55001 9.88008 8.55001C9.14554 8.55001 8.55008 9.14547 8.55008 9.88001C8.55008 10.6146 9.14554 11.21 9.88008 11.21ZM6.26996 20.805C6.26996 21.592 5.63196 22.23 4.84495 22.23C4.05795 22.23 3.41995 21.592 3.41995 20.805C3.41995 20.018 4.05795 19.38 4.84495 19.38C5.63196 19.38 6.26996 20.018 6.26996 20.805ZM4.94008 16.5301C5.67462 16.5301 6.27008 15.9346 6.27008 15.2001C6.27008 14.4656 5.67462 13.8701 4.94008 13.8701C4.20554 13.8701 3.61008 14.4656 3.61008 15.2001C3.61008 15.9346 4.20554 16.5301 4.94008 16.5301ZM16.53 4.93998C16.53 5.56959 16.0196 6.07998 15.39 6.07998C14.7604 6.07998 14.25 5.56959 14.25 4.93998C14.25 4.31038 14.7604 3.79998 15.39 3.79998C16.0196 3.79998 16.53 4.31038 16.53 4.93998Z" fill="#00B835"/>
<defs>
<linearGradient id="paint0_linear" x1="29.6533" y1="1.99258" x2="29.6533" y2="5.03258" gradientUnits="userSpaceOnUse">
<stop stop-color="#35CB8C"/>
<stop offset="1" stop-color="white" stop-opacity="0.01"/>
</linearGradient>
<linearGradient id="paint1_linear" x1="30.4498" y1="4.84973" x2="30.4498" y2="9.40973" gradientUnits="userSpaceOnUse">
<stop stop-color="#35CB8C"/>
<stop offset="1" stop-color="white" stop-opacity="0.01"/>
</linearGradient>
<linearGradient id="paint2_linear" x1="25.4587" y1="4.4574" x2="25.4587" y2="9.0174" gradientUnits="userSpaceOnUse">
<stop stop-color="#35CB8C"/>
<stop offset="1" stop-color="white" stop-opacity="0.01"/>
</linearGradient>
<linearGradient id="paint3_linear" x1="25.1699" y1="0.86908" x2="25.1699" y2="5.42908" gradientUnits="userSpaceOnUse">
<stop stop-color="#35CB8C"/>
<stop offset="1" stop-color="white" stop-opacity="0.01"/>
</linearGradient>
<linearGradient id="paint4_linear" x1="20.1684" y1="0.490356" x2="20.1684" y2="5.05036" gradientUnits="userSpaceOnUse">
<stop stop-color="#35CB8C"/>
<stop offset="1" stop-color="white" stop-opacity="0.01"/>
</linearGradient>
<linearGradient id="paint5_linear" x1="20.0175" y1="4.30969" x2="20.0175" y2="8.86969" gradientUnits="userSpaceOnUse">
<stop stop-color="#35CB8C"/>
<stop offset="1" stop-color="white" stop-opacity="0.01"/>
</linearGradient>
<linearGradient id="paint6_linear" x1="15.1046" y1="0.97879" x2="15.1046" y2="4.62679" gradientUnits="userSpaceOnUse">
<stop stop-color="#35CB8C"/>
<stop offset="1" stop-color="white" stop-opacity="0.01"/>
</linearGradient>
<linearGradient id="paint7_linear" x1="10.5726" y1="2.10223" x2="10.5726" y2="5.75023" gradientUnits="userSpaceOnUse">
<stop stop-color="#35CB8C"/>
<stop offset="1" stop-color="white" stop-opacity="0.01"/>
</linearGradient>
<linearGradient id="paint8_linear" x1="4.72107" y1="10.5607" x2="4.72107" y2="13.2207" gradientUnits="userSpaceOnUse">
<stop stop-color="#35CB8C"/>
<stop offset="1" stop-color="white" stop-opacity="0.01"/>
</linearGradient>
<linearGradient id="paint9_linear" x1="2.00916" y1="11.1508" x2="2.00916" y2="13.8108" gradientUnits="userSpaceOnUse">
<stop stop-color="#35CB8C"/>
<stop offset="1" stop-color="white" stop-opacity="0.01"/>
</linearGradient>
<linearGradient id="paint10_linear" x1="0.534973" y1="15.6761" x2="0.534973" y2="18.3361" gradientUnits="userSpaceOnUse">
<stop stop-color="#35CB8C"/>
<stop offset="1" stop-color="white" stop-opacity="0.01"/>
</linearGradient>
<linearGradient id="paint11_linear" x1="5.74146" y1="5.98599" x2="5.74146" y2="9.02599" gradientUnits="userSpaceOnUse">
<stop stop-color="#35CB8C"/>
<stop offset="1" stop-color="white" stop-opacity="0.01"/>
</linearGradient>
<linearGradient id="paint12_linear" x1="0.795593" y1="21.7932" x2="0.795593" y2="23.6932" gradientUnits="userSpaceOnUse">
<stop stop-color="#35CB8C"/>
<stop offset="1" stop-color="white" stop-opacity="0.01"/>
</linearGradient>
<linearGradient id="paint13_linear" x1="1.76843" y1="26.1365" x2="1.76843" y2="28.4165" gradientUnits="userSpaceOnUse">
<stop stop-color="#35CB8C"/>
<stop offset="1" stop-color="white" stop-opacity="0.01"/>
</linearGradient>
<linearGradient id="paint14_linear" x1="2.80579" y1="30.5262" x2="2.80579" y2="33.1862" gradientUnits="userSpaceOnUse">
<stop stop-color="#35CB8C"/>
<stop offset="1" stop-color="white" stop-opacity="0.01"/>
</linearGradient>
<linearGradient id="paint15_linear" x1="6.65009" y1="35.34" x2="6.65009" y2="39.52" gradientUnits="userSpaceOnUse">
<stop stop-color="#35CB8C"/>
<stop offset="1" stop-color="white" stop-opacity="0.01"/>
</linearGradient>
<linearGradient id="paint16_linear" x1="11.4466" y1="35.8813" x2="11.4466" y2="40.0613" gradientUnits="userSpaceOnUse">
<stop stop-color="#35CB8C"/>
<stop offset="1" stop-color="white" stop-opacity="0.01"/>
</linearGradient>
<linearGradient id="paint17_linear" x1="15.9278" y1="36.105" x2="15.9278" y2="41.045" gradientUnits="userSpaceOnUse">
<stop stop-color="#35CB8C"/>
<stop offset="1" stop-color="white" stop-opacity="0.01"/>
</linearGradient>
<linearGradient id="paint18_linear" x1="21.2586" y1="35.9351" x2="21.2586" y2="40.8751" gradientUnits="userSpaceOnUse">
<stop stop-color="#35CB8C"/>
<stop offset="1" stop-color="white" stop-opacity="0.01"/>
</linearGradient>
<linearGradient id="paint19_linear" x1="27.0552" y1="35.7314" x2="27.0552" y2="42.9514" gradientUnits="userSpaceOnUse">
<stop stop-color="#35CB8C"/>
<stop offset="1" stop-color="white" stop-opacity="0.01"/>
</linearGradient>
<linearGradient id="paint20_linear" x1="26.6752" y1="39.9114" x2="26.6752" y2="45.2314" gradientUnits="userSpaceOnUse">
<stop stop-color="#35CB8C"/>
<stop offset="1" stop-color="white" stop-opacity="0.01"/>
</linearGradient>
<linearGradient id="paint21_linear" x1="30.9364" y1="38.8525" x2="30.9364" y2="42.2725" gradientUnits="userSpaceOnUse">
<stop stop-color="#35CB8C"/>
<stop offset="1" stop-color="white" stop-opacity="0.01"/>
</linearGradient>
<linearGradient id="paint22_linear" x1="31.4059" y1="35.5114" x2="31.4059" y2="42.3514" gradientUnits="userSpaceOnUse">
<stop stop-color="#35CB8C"/>
<stop offset="1" stop-color="white" stop-opacity="0.01"/>
</linearGradient>
<linearGradient id="paint23_linear" x1="36.0065" y1="35.0173" x2="36.0065" y2="39.5773" gradientUnits="userSpaceOnUse">
<stop stop-color="#35CB8C"/>
<stop offset="1" stop-color="white" stop-opacity="0.01"/>
</linearGradient>
<linearGradient id="paint24_linear" x1="36.4432" y1="30.1344" x2="36.4432" y2="34.6944" gradientUnits="userSpaceOnUse">
<stop stop-color="#35CB8C"/>
<stop offset="1" stop-color="white" stop-opacity="0.01"/>
</linearGradient>
<linearGradient id="paint25_linear" x1="32.192" y1="30.7973" x2="32.192" y2="38.0173" gradientUnits="userSpaceOnUse">
<stop stop-color="#35CB8C"/>
<stop offset="1" stop-color="white" stop-opacity="0.01"/>
</linearGradient>
<linearGradient id="paint26_linear" x1="37.1062" y1="25.478" x2="37.1062" y2="32.318" gradientUnits="userSpaceOnUse">
<stop stop-color="#35CB8C"/>
<stop offset="1" stop-color="white" stop-opacity="0.01"/>
</linearGradient>
<linearGradient id="paint27_linear" x1="32.6316" y1="25.5894" x2="32.6316" y2="32.8094" gradientUnits="userSpaceOnUse">
<stop stop-color="#35CB8C"/>
<stop offset="1" stop-color="white" stop-opacity="0.01"/>
</linearGradient>
<linearGradient id="paint28_linear" x1="27.3887" y1="18.8904" x2="27.3887" y2="22.6904" gradientUnits="userSpaceOnUse">
<stop stop-color="#35CB8C"/>
<stop offset="1" stop-color="white" stop-opacity="0.01"/>
</linearGradient>
<linearGradient id="paint29_linear" x1="32.3288" y1="19.2704" x2="32.3288" y2="22.3104" gradientUnits="userSpaceOnUse">
<stop stop-color="#35CB8C"/>
<stop offset="1" stop-color="white" stop-opacity="0.01"/>
</linearGradient>
<linearGradient id="paint30_linear" x1="37.2688" y1="19.6504" x2="37.2688" y2="23.0704" gradientUnits="userSpaceOnUse">
<stop stop-color="#35CB8C"/>
<stop offset="1" stop-color="white" stop-opacity="0.01"/>
</linearGradient>
<linearGradient id="paint31_linear" x1="21.389" y1="18.5696" x2="21.389" y2="23.1296" gradientUnits="userSpaceOnUse">
<stop stop-color="#35CB8C"/>
<stop offset="1" stop-color="white" stop-opacity="0.01"/>
</linearGradient>
<linearGradient id="paint32_linear" x1="21.5245" y1="40.3095" x2="21.5245" y2="46.7695" gradientUnits="userSpaceOnUse">
<stop stop-color="#35CB8C"/>
<stop offset="1" stop-color="white" stop-opacity="0.01"/>
</linearGradient>
<linearGradient id="paint33_linear" x1="16.3773" y1="39.9539" x2="16.3773" y2="42.9939" gradientUnits="userSpaceOnUse">
<stop stop-color="#35CB8C"/>
<stop offset="1" stop-color="white" stop-opacity="0.01"/>
</linearGradient>
<linearGradient id="paint34_linear" x1="6.32361" y1="31.2365" x2="6.32361" y2="34.6565" gradientUnits="userSpaceOnUse">
<stop stop-color="#35CB8C"/>
<stop offset="1" stop-color="white" stop-opacity="0.01"/>
</linearGradient>
<linearGradient id="paint35_linear" x1="11.0656" y1="31.3834" x2="11.0656" y2="35.5634" gradientUnits="userSpaceOnUse">
<stop stop-color="#35CB8C"/>
<stop offset="1" stop-color="white" stop-opacity="0.01"/>
</linearGradient>
<linearGradient id="paint36_linear" x1="6.02173" y1="26.3977" x2="6.02173" y2="28.6777" gradientUnits="userSpaceOnUse">
<stop stop-color="#35CB8C"/>
<stop offset="1" stop-color="white" stop-opacity="0.01"/>
</linearGradient>
<linearGradient id="paint37_linear" x1="9.95441" y1="5.13028" x2="9.95441" y2="8.17028" gradientUnits="userSpaceOnUse">
<stop stop-color="#35CB8C"/>
<stop offset="1" stop-color="white" stop-opacity="0.01"/>
</linearGradient>
<linearGradient id="paint38_linear" x1="8.8739" y1="9.58737" x2="8.8739" y2="12.2474" gradientUnits="userSpaceOnUse">
<stop stop-color="#35CB8C"/>
<stop offset="1" stop-color="white" stop-opacity="0.01"/>
</linearGradient>
<linearGradient id="paint39_linear" x1="14.6644" y1="4.18826" x2="14.6644" y2="8.74826" gradientUnits="userSpaceOnUse">
<stop stop-color="#35CB8C"/>
<stop offset="1" stop-color="white" stop-opacity="0.01"/>
</linearGradient>
</defs>
</svg>
