<svg width="169" height="157" viewBox="0 0 169 157" fill="none" xmlns="http://www.w3.org/2000/svg">
<path d="M105.751 157H63.6205C60.5641 157 58.2516 154.257 58.7492 151.25L64.0155 119.652C64.4138 117.273 66.4742 115.528 68.8868 115.528H100.484C102.897 115.528 104.957 117.273 105.356 119.652L110.622 151.25C111.119 154.252 108.811 157 105.751 157Z" fill="#47D69A"/>
<path d="M105.751 157H84.6855V115.528H100.484C102.897 115.528 104.957 117.273 105.356 119.652L110.622 151.25C111.119 154.252 108.811 157 105.751 157Z" fill="#12A065"/>
<path d="M121.22 152.063C121.22 154.788 119.008 157 116.283 157H53.088C50.3628 157 48.1509 154.788 48.1509 152.063C48.1509 149.338 50.3628 147.126 53.088 147.126H116.283C119.008 147.126 121.22 149.338 121.22 152.063Z" fill="#35CB8C"/>
<path d="M121.22 152.063C121.22 154.788 119.008 157 116.283 157H84.6855V147.126H116.283C119.008 147.126 121.22 149.338 121.22 152.063Z" fill="#1BB273"/>
<path d="M164.008 14.8113V110.591C164.008 116.045 159.588 120.465 154.134 120.465H15.2369C9.78303 120.465 5.36267 116.045 5.36267 110.591V14.8113C5.36267 9.35746 9.78303 4.9371 15.2369 4.9371H154.134C159.588 4.9371 164.008 9.35746 164.008 14.8113Z" fill="#F6F9F9"/>
<path d="M164.008 14.8113V110.591C164.008 116.045 159.588 120.465 154.134 120.465H84.6855V4.9371H154.134C159.588 4.9371 164.008 9.35746 164.008 14.8113Z" fill="#EEEEEE"/>
<path d="M154.134 0H15.2369C7.07094 0 0.425598 6.64535 0.425598 14.8113V110.591C0.425598 118.757 7.07094 125.403 15.2369 125.403H154.134C162.3 125.403 168.945 118.757 168.945 110.591V14.8113C168.945 6.64535 162.3 0 154.134 0ZM159.071 110.591C159.071 113.313 156.856 115.528 154.134 115.528H15.2369C12.5149 115.528 10.2998 113.313 10.2998 110.591V14.8113C10.2998 12.0893 12.5149 9.87421 15.2369 9.87421H154.134C156.856 9.87421 159.071 12.0893 159.071 14.8113V110.591Z" fill="#35CB8C"/>
<path d="M168.945 14.8113V110.591C168.945 118.757 162.3 125.403 154.134 125.403H84.6855V115.528H154.134C156.856 115.528 159.071 113.313 159.071 110.591V14.8113C159.071 12.0893 156.856 9.87421 154.134 9.87421H84.6855V0H154.134C162.3 0 168.945 6.64535 168.945 14.8113Z" fill="#1BB373"/>
<path d="M47.8218 89.197C45.0952 89.197 42.8847 86.9865 42.8847 84.2599V52.3333C42.8847 49.6067 45.0952 47.3962 47.8218 47.3962C50.5484 47.3962 52.7589 49.6067 52.7589 52.3333V84.2599C52.7589 86.9865 50.5484 89.197 47.8218 89.197Z" fill="#FFB454"/>
<path d="M68.8868 89.1971C66.1602 89.1971 63.9497 86.9866 63.9497 84.26V68.1321C63.9497 65.4055 66.1602 63.195 68.8868 63.195C71.6134 63.195 73.8239 65.4055 73.8239 68.1321V84.26C73.8239 86.9866 71.6134 89.1971 68.8868 89.1971Z" fill="#00B5EE"/>
<path d="M118.916 91.501C134.731 91.501 147.551 78.6806 147.551 62.8658C147.551 47.051 134.731 34.2306 118.916 34.2306C103.101 34.2306 90.2809 47.051 90.2809 62.8658C90.2809 78.6806 103.101 91.501 118.916 91.501Z" fill="#FFB454"/>
<path d="M147.551 62.8658C147.551 78.6547 134.705 91.501 118.916 91.501C111.267 91.501 104.078 88.5223 98.6674 83.1145L118.916 62.8658V57.9287H142.614C145.339 57.9287 147.551 60.1405 147.551 62.8658Z" fill="#FA5858"/>
<path d="M147.551 62.8658H118.916V34.2306C134.705 34.2306 147.551 47.0769 147.551 62.8658Z" fill="#00B5EE"/>
<path d="M26.7568 89.197C24.0302 89.197 21.8197 86.9865 21.8197 84.2599V36.5346C21.8197 33.808 24.0302 31.5975 26.7568 31.5975C29.4834 31.5975 31.6939 33.808 31.6939 36.5346V84.2599C31.6939 86.9865 29.4834 89.197 26.7568 89.197Z" fill="#FA5858"/>
</svg>
