<svg width="20" height="20" viewBox="0 0 20 20" fill="none" xmlns="http://www.w3.org/2000/svg">
<path d="M5.27344 0C2.36551 0 0 2.36551 0 5.27344C0 8.18137 2.36551 10.5469 5.27344 10.5469C8.16711 10.5469 10.5469 8.2102 10.5469 5.27344C10.5469 2.40043 8.20547 0 5.27344 0ZM5.85938 8.0952V8.78906C5.85938 9.11293 5.5973 9.375 5.27344 9.375C4.94957 9.375 4.6875 9.11293 4.6875 8.78906V8.08941C4.36637 7.97441 4.0759 7.7782 3.86754 7.50047C3.67355 7.24125 3.72563 6.87391 3.98426 6.67992C4.2452 6.48766 4.61195 6.53746 4.8048 6.79664C4.91637 6.94598 5.08746 7.03125 5.27344 7.03125C5.59672 7.03125 5.85938 6.76859 5.85938 6.44531C5.85938 6.12203 5.59672 5.85938 5.27344 5.85938C4.30414 5.85938 3.51562 5.07086 3.51562 4.10156C3.51562 3.33867 4.00695 2.69438 4.6875 2.45168V1.75781C4.6875 1.43395 4.94957 1.17188 5.27344 1.17188C5.5973 1.17188 5.85938 1.43395 5.85938 1.75781V2.45746C6.18051 2.57246 6.47098 2.76867 6.67934 3.04641C6.87332 3.30562 6.82125 3.67297 6.56262 3.86695C6.3034 4.06148 5.93719 4.00941 5.74207 3.75023C5.43594 3.34109 4.6875 3.5923 4.6875 4.10156C4.6875 4.42484 4.95016 4.6875 5.27344 4.6875C6.24273 4.6875 7.03125 5.47602 7.03125 6.44531C7.03125 7.2082 6.53992 7.8525 5.85938 8.0952Z" fill="#5A5A5A"/>
<path d="M19.4141 2.34375H10.9953C11.3714 3.07918 11.6033 3.87484 11.6821 4.6875H16.9922C17.3161 4.6875 17.5781 4.94957 17.5781 5.27344V9.96094C17.5781 10.2848 17.3161 10.5469 16.9922 10.5469H8.96352C7.99113 11.2261 6.96344 11.5857 5.85938 11.6825V19.4141C5.85938 19.7379 6.12145 20 6.44531 20H19.4141C19.7379 20 20 19.7379 20 19.4141V2.92969C20 2.60582 19.7379 2.34375 19.4141 2.34375ZM12.3047 11.7188H13.4766C13.8004 11.7188 14.0625 11.9808 14.0625 12.3047C14.0625 12.6286 13.8004 12.8906 13.4766 12.8906H12.3047C11.9808 12.8906 11.7188 12.6286 11.7188 12.3047C11.7188 11.9808 11.9808 11.7188 12.3047 11.7188ZM12.3047 14.0625H13.4766C13.8004 14.0625 14.0625 14.3246 14.0625 14.6484C14.0625 14.9723 13.8004 15.2344 13.4766 15.2344H12.3047C11.9808 15.2344 11.7188 14.9723 11.7188 14.6484C11.7188 14.3246 11.9808 14.0625 12.3047 14.0625ZM9.96094 17.5781H8.78906C8.4652 17.5781 8.20312 17.3161 8.20312 16.9922C8.20312 16.6683 8.4652 16.4062 8.78906 16.4062H9.96094C10.2848 16.4062 10.5469 16.6683 10.5469 16.9922C10.5469 17.3161 10.2848 17.5781 9.96094 17.5781ZM9.96094 15.2344H8.78906C8.4652 15.2344 8.20312 14.9723 8.20312 14.6484C8.20312 14.3246 8.4652 14.0625 8.78906 14.0625H9.96094C10.2848 14.0625 10.5469 14.3246 10.5469 14.6484C10.5469 14.9723 10.2848 15.2344 9.96094 15.2344ZM9.96094 12.8906H8.78906C8.4652 12.8906 8.20312 12.6286 8.20312 12.3047C8.20312 11.9808 8.4652 11.7188 8.78906 11.7188H9.96094C10.2848 11.7188 10.5469 11.9808 10.5469 12.3047C10.5469 12.6286 10.2848 12.8906 9.96094 12.8906ZM16.9922 17.5781H12.3047C11.9808 17.5781 11.7188 17.3161 11.7188 16.9922C11.7188 16.6683 11.9808 16.4062 12.3047 16.4062H16.9922C17.3161 16.4062 17.5781 16.6683 17.5781 16.9922C17.5781 17.3161 17.3161 17.5781 16.9922 17.5781ZM16.9922 15.2344H15.8203C15.4964 15.2344 15.2344 14.9723 15.2344 14.6484C15.2344 14.3246 15.4964 14.0625 15.8203 14.0625H16.9922C17.3161 14.0625 17.5781 14.3246 17.5781 14.6484C17.5781 14.9723 17.3161 15.2344 16.9922 15.2344ZM16.9922 12.8906H15.8203C15.4964 12.8906 15.2344 12.6286 15.2344 12.3047C15.2344 11.9808 15.4964 11.7188 15.8203 11.7188H16.9922C17.3161 11.7188 17.5781 11.9808 17.5781 12.3047C17.5781 12.6286 17.3161 12.8906 16.9922 12.8906Z" fill="#5A5A5A"/>
<path d="M16.4062 9.375V5.85938H11.6695C11.5491 7.17879 11.0423 8.39496 10.2316 9.375H16.4062Z" fill="#5A5A5A"/>
</svg>
